<svg id="Layer_1" data-name="Layer 1" xmlns="http://www.w3.org/2000/svg" viewBox="0 0 30 30">
  <defs>
    <style>
      .cls-1 {
        fill: #425156;
      }

      .cls-2 {
        fill: #fff;
      }
    </style>
  </defs>
  <title>Artboard 1</title>
  <path class="cls-1" d="M15.06,29.73A14.73,14.73,0,1,0,.33,15,14.73,14.73,0,0,0,15.06,29.73"/>
  <g>
    <path class="cls-2" d="M11.34,21.14a3.66,3.66,0,0,1-3.16-1.6A7.8,7.8,0,0,1,7,15a6.93,6.93,0,0,1,1.19-4.35,3.77,3.77,0,0,1,3.11-1.52,3.74,3.74,0,0,1,3.11,1.52A7,7,0,0,1,15.62,15a7.8,7.8,0,0,1-1.14,4.56A3.65,3.65,0,0,1,11.34,21.14ZM9.18,18.6a2.45,2.45,0,0,0,4.32,0A7.36,7.36,0,0,0,14.24,15a6.36,6.36,0,0,0-.76-3.4,2.4,2.4,0,0,0-2.14-1.19,2.4,2.4,0,0,0-2.14,1.19A6.35,6.35,0,0,0,8.44,15,7.36,7.36,0,0,0,9.18,18.6Z"/>
    <path class="cls-2" d="M20.08,20.9v-10L17.6,12.5V11l2.65-1.65h1.1V20.9Z"/>
  </g>
</svg>
