<svg id="Layer_1" data-name="Layer 1" xmlns="http://www.w3.org/2000/svg" viewBox="0 0 30 30">
  <defs>
    <style>
      .cls-1 {
        fill: #425156;
      }

      .cls-2 {
        fill: #fff;
      }
    </style>
  </defs>
  <title>Artboard 1 copy</title>
  <path class="cls-1" d="M15.06,29.73A14.73,14.73,0,1,0,.33,15,14.73,14.73,0,0,0,15.06,29.73"/>
  <g>
    <path class="cls-2" d="M10.29,21.14a3.67,3.67,0,0,1-3.16-1.6A7.8,7.8,0,0,1,6,15a6.93,6.93,0,0,1,1.19-4.35,3.76,3.76,0,0,1,3.11-1.52,3.74,3.74,0,0,1,3.11,1.52A7,7,0,0,1,14.57,15a7.8,7.8,0,0,1-1.14,4.56A3.65,3.65,0,0,1,10.29,21.14ZM8.13,18.6a2.36,2.36,0,0,0,2.16,1.29,2.36,2.36,0,0,0,2.16-1.29A7.37,7.37,0,0,0,13.19,15a6.37,6.37,0,0,0-.76-3.4,2.4,2.4,0,0,0-2.14-1.19,2.4,2.4,0,0,0-2.14,1.19A6.35,6.35,0,0,0,7.39,15,7.37,7.37,0,0,0,8.13,18.6Z"/>
    <path class="cls-2" d="M16.45,20.9v-1A4.37,4.37,0,0,1,17,17.39a7,7,0,0,1,2.57-1.93l.93-.51.71-.43a3.67,3.67,0,0,0,.63-.46q.16-.16.38-.45a1.41,1.41,0,0,0,.29-.57,2.92,2.92,0,0,0,.07-.65A2,2,0,0,0,22,11a2.35,2.35,0,0,0-1.75-.6,2.43,2.43,0,0,0-1.82.7,2.92,2.92,0,0,0-.75,2l-1.32-.13a3.8,3.8,0,0,1,1.14-2.78,3.93,3.93,0,0,1,2.78-1,3.59,3.59,0,0,1,2.67,1,3.25,3.25,0,0,1,1,2.38,3.76,3.76,0,0,1-.21,1.33,2.65,2.65,0,0,1-.77,1.05,7.52,7.52,0,0,1-.87.67q-.3.19-1.13.63l-.23.13-.54.29-.49.26-.39.22-.36.23-.27.21a1.89,1.89,0,0,0-.26.25,2,2,0,0,0-.18.25,2.86,2.86,0,0,0-.33,1.53H24V20.9Z"/>
  </g>
</svg>
