<svg id="Layer_1" data-name="Layer 1" xmlns="http://www.w3.org/2000/svg" viewBox="0 0 30 30">
  <defs>
    <style>
      .cls-1 {
        fill: #425156;
      }

      .cls-2 {
        fill: #fff;
      }
    </style>
  </defs>
  <title>Artboard 1 copy 2</title>
  <path class="cls-1" d="M15.06,29.73A14.73,14.73,0,1,0,.33,15,14.73,14.73,0,0,0,15.06,29.73"/>
  <g>
    <path class="cls-2" d="M10.23,21.14a3.66,3.66,0,0,1-3.16-1.6A7.8,7.8,0,0,1,5.93,15a6.93,6.93,0,0,1,1.19-4.35,3.77,3.77,0,0,1,3.11-1.52,3.74,3.74,0,0,1,3.11,1.52A7,7,0,0,1,14.52,15a7.8,7.8,0,0,1-1.14,4.56A3.65,3.65,0,0,1,10.23,21.14ZM8.07,18.6a2.35,2.35,0,0,0,2.16,1.29,2.35,2.35,0,0,0,2.16-1.29A7.36,7.36,0,0,0,13.13,15a6.36,6.36,0,0,0-.76-3.4,2.4,2.4,0,0,0-2.14-1.2,2.4,2.4,0,0,0-2.14,1.19A6.35,6.35,0,0,0,7.33,15,7.36,7.36,0,0,0,8.07,18.6Z"/>
    <path class="cls-2" d="M16.08,17.11l1.33-.26a4.26,4.26,0,0,0,.86,2.32,2.48,2.48,0,0,0,2,.74,2.58,2.58,0,0,0,1.9-.65,2.18,2.18,0,0,0,.65-1.61q0-2.34-2.52-2.34h-.82V14.13h.35a4.63,4.63,0,0,0,.69,0,5.61,5.61,0,0,0,.82-.21,1.51,1.51,0,0,0,.79-.57,1.7,1.7,0,0,0,.3-1,1.8,1.8,0,0,0-.58-1.42,2.28,2.28,0,0,0-1.57-.51,2.14,2.14,0,0,0-1.57.58A2.66,2.66,0,0,0,18,12.55l-1.29-.23A3.46,3.46,0,0,1,17.8,10a3.57,3.57,0,0,1,2.46-.87,3.71,3.71,0,0,1,2.47.82,2.79,2.79,0,0,1,1,2.26,2.29,2.29,0,0,1-.55,1.59,2.51,2.51,0,0,1-1.24.8v0a2.77,2.77,0,0,1,1.56,1,3.19,3.19,0,0,1,.63,2.06A3.22,3.22,0,0,1,23,20.17a4,4,0,0,1-2.78,1,4.09,4.09,0,0,1-2.83-1A4.62,4.62,0,0,1,16.08,17.11Z"/>
  </g>
</svg>
